# AST/ASF file generated using VICON BodyLanguage
# -----------------------------------------------
:version 1.10
:name VICON
:units
  mass 1.0
  length 0.45
  angle deg
:documentation
   .ast/.asf automatically generated from VICON data using
   VICON BodyBuilder and BodyLanguage model FoxedUp or BRILLIANT.MOD
:root
   order TX TY TZ RX RY RZ
   axis XYZ
   position 0 0 0  
   orientation 0 0 0 
:bonedata
  begin
     id 1 
     name lhipjoint
     direction 0.578396 -0.714046 0.394458 
     length 2.21935 
     axis 0 0 0  XYZ
  end
  begin
     id 2 
     name lfemur
     direction 0.34202 -0.939693 0  
     length 6.39105  
     axis 0 0 20  XYZ
    dof rx ry rz
    limits (-160.0 20.0)
           (-70.0 70.0)
           (-60.0 70.0)
  end
  begin
     id 3 
     name ltibia
     direction 0.34202 -0.939693 0   
     length 6.99037   
     axis 0 0 20   XYZ
    dof rx
    limits (-10.0 170.0)
  end
  begin
     id 4 
     name lfoot
     direction 0.0582372 -0.160005 0.985397   
     length 2.06111   
     axis -90 7.62852e-016 20   XYZ
    dof rx rz
    limits (-45.0 90.0)
           (-70.0 20.0)
  end
  begin
     id 5 
     name ltoes
     direction 1.53556e-011 -4.21875e-011 1   
     length 1.04074   
     axis -90 7.62852e-016 20   XYZ
    dof rx
    limits (-90.0 20.0)
  end
  begin
     id 6 
     name rhipjoint
     direction -0.558179 -0.726269 0.40121   
     length 2.182  
     axis 0 0 0  XYZ 
  end
  begin
     id 7 
     name rfemur
     direction -0.34202 -0.939693 0   
     length 6.51172   
     axis 0 0 -20   XYZ
    dof rx ry rz
    limits (-160.0 20.0)
           (-70.0 70.0)
           (-70.0 60.0)
  end
  begin
     id 8 
     name rtibia
     direction -0.34202 -0.939693 0   
     length 7.02607   
     axis 0 0 -20   XYZ
    dof rx
    limits (-10.0 170.0)
 end
 begin
     id 9 
     name rfoot
     direction -0.0788856 -0.216737 0.973038   
     length 1.96734  
     axis -90 -7.62852e-016 -20   XYZ
    dof rx rz
    limits (-45.0 90.0)
           (-20.0 70.0)
  end
  begin
     id 10 
     name rtoes
     direction -1.53567e-011 -4.21783e-011 1   
     length 0.990825   
     axis -90 -7.62852e-016 -20   XYZ
    dof rx
    limits (-90.0 20.0)
  end
  begin
     id 11 
     name lowerback
     direction 0.00668177 0.999323 -0.0361741   
     length 1.7655   
     axis 0 0 0   XYZ
    dof rx ry rz
    limits (-20.0 45.0)
           (-30.0 30.0)
           (-30.0 30.0)
  end
  begin
     id 12 
     name upperback
     direction -0.00222086 0.99851 0.0545167   
     length 1.74912   
     axis 0 0 0   XYZ
    dof rx ry rz
    limits (-20.0 45.0)
           (-30.0 30.0)
           (-30.0 30.0)
  end
  begin
     id 13 
     name thorax
     direction -0.00733971 0.997496 0.0703443   
     length 1.75715   
     axis 0 0 0   XYZ
    dof rx ry rz
    limits (-20.0 45.0)
           (-30.0 30.0)
           (-30.0 30.0)
  end
  begin
     id 14 
     name lowerneck
     direction 0.0279797 0.994795 0.0979765   
     length 1.46939   
     axis 0 0 0   XYZ
    dof rx ry rz
    limits (-20.0 45.0)
           (-30.0 30.0)
           (-30.0 30.0)
  end
  begin
     id 15 
     name upperneck
     direction 0.00339187 0.976776 -0.214238   
     length 1.48018   
     axis 0 0 0   XYZ
    dof rx ry rz
    limits (-20.0 45.0)
           (-30.0 30.0)
           (-30.0 30.0)
  end
  begin
     id 16
     name head
     direction -0.00263506 0.996603 -0.0823096  
     length 1.4976  
     axis 0 0 0   XYZ
    dof rx ry rz
    limits (-20.0 45.0)
           (-30.0 30.0)
           (-30.0 30.0)
  end
  begin
     id 17 
     name lclavicle
     direction 0.894044 0.44508 -0.0508781  
     length 3.03024  
     axis 0 0 0   XYZ
    dof ry rz
    limits (-20.0 10.0)
           (0.0 20.0)
  end
  begin
     id 18 
     name lhumerus
     direction 1 -4.48961e-011 -2.39475e-018   
     length 4.4661   
     axis 180 -30 -90   XYZ
    dof rx ry rz
    limits (-60.0 90.0)
           (-90.0 90.0)
           (-90.0 90.0)
  end
  begin
     id 19
     name lradius
     direction 1 -4.48961e-011 9.29328e-028   
     length 3.41414   
     axis 180 -30 -90   XYZ
    dof rx
    limits (-10.0 170.0)
  end
  begin
     id 20
     name lwrist
     direction 1 -4.48985e-011 1.53461e-026   
     length 1.70707   
     axis -1.09697e-014 90 90   XYZ
    dof ry
    limits (-180.0 0.0)
 end
  begin
     id 21 
     name lhand
     direction 1 -4.48966e-011 3.06923e-026   
     length 0.328298   
     axis -1.95843e-014 90 90   XYZ
    dof rx rz
    limits (-90.0 90.0)
           (-45.0 45.0)
  end
  begin
     id 22 
     name lfingers
     direction 1 -4.48893e-011 6.13845e-026   
     length 0.264682   
     axis -3.91686e-014 90 90   XYZ
    dof rx
    limits (0.0 90.0)
  end
  begin
     id 23
     name lthumb
     direction 0.707107 -6.34876e-011 0.707107   
     length 0.380032   
     axis -90 45 2.85299e-015   XYZ
    dof rx rz
    limits (-45.0 45.0)
           (-45.0 45.0)
  end
  begin
     id 24 
     name rclavicle
     direction -0.936955 0.347862 -0.0332887   
     length 3.26927  
     axis 0 0 0   XYZ 
    dof ry rz
    limits (-10.0 20.0)
           (-20.0 0.0)
  end
  begin
     id 25 
     name rhumerus
     direction -1 -4.4896e-011 1.78637e-018  
     length 4.40431   
     axis 180 30 90   XYZ
    dof rx ry rz
    limits (-90.0 60.0)
           (-90.0 90.0)
           (-90.0 90.0)
  end
  begin
     id 26 
     name rradius
     direction -1 -4.48955e-011 9.34036e-027   
     length 3.04688   
     axis 180 30 90   XYZ
    dof rx
    limits (-10.0 170.0)
  end
  begin
     id 27 
     name rwrist
     direction -1 -4.49011e-011 1.53461e-026   
     length 1.52344   
     axis -1.09697e-014 -90 -90   XYZ
    dof ry
    limits (-180.0 0.0)
  end
  begin
     id 28
     name rhand
     direction -1 -4.48834e-011 3.06923e-026   
     length 0.500489   
     axis -1.95843e-014 -90 -90   XYZ
    dof rx rz
    limits (-90.0 90.0)
           (-45.0 45.0)
  end
  begin
     id 29
     name rfingers
     direction -1 -4.48967e-011 6.13845e-026   
     length 0.403507   
     axis -3.91686e-014 -90 -90   XYZ
    dof rx
    limits (0.0 90.0)
  end
  begin
     id 30
     name rthumb
     direction -0.707107 -6.34826e-011 0.707107   
     length 0.579358   
     axis -90 -45 -2.85299e-015   XYZ
    dof rx rz
    limits (-45.0 45.0)
           (-45.0 45.0)
  end
:hierarchy
  begin
    root lhipjoint rhipjoint lowerback
    lhipjoint lfemur
    lfemur ltibia
    ltibia lfoot
    lfoot ltoes
    rhipjoint rfemur
    rfemur rtibia
    rtibia rfoot
    rfoot rtoes
    lowerback upperback
    upperback thorax
    thorax lowerneck lclavicle rclavicle
    lowerneck upperneck
    upperneck head
    lclavicle lhumerus
    lhumerus lradius
    lradius lwrist
    lwrist lhand lthumb
    lhand lfingers
    rclavicle rhumerus
    rhumerus rradius
    rradius rwrist
    rwrist rhand rthumb
    rhand rfingers
  end

#!OML:ASF H:\IndianDance\Patient Classification 1\Patient 1\Session 1\dancer.ASF
:FULLY-SPECIFIED
:DEGREES
1768
root 7.87569 13.3368 5.21632 -170.436 9.55299 -167.428
lowerback 7.16807 6.36402 4.02232
upperback -7.5548 9.46847 -0.0943604
thorax -11.5088 4.34653 -3.90365
lowerneck -14.5313 11.3215 9.3842
upperneck 6.25935 14.1639 -7.54137
head 5.41342 6.67375 -2.45685
rclavicle -2.07233e-014 6.04305e-014
rhumerus -32.7555 29.2368 -47.3495
rradius 115.826
rwrist 24.1528
rhand -54.4223 56.6828
rfingers 7.12502
rthumb -26.8275 28.5658
lclavicle -2.07233e-014 6.04305e-014
lhumerus -5.72118 15.3174 23.8033
lradius 71.7888
lwrist 55.68
lhand -10.3387 28.1314
lfingers 7.12502
lthumb 15.6574 417.518
rfemur -22.9316 -8.30277 51.818
rtibia 58.442
rfoot -33.9453 -3.95716
rtoes 20.9089
lfemur -60.4087 14.0929 -44.1368
ltibia 64.6624
lfoot 2.76675 -13.4048
ltoes -0.195746
1769
root 8.08163 13.3078 5.15535 -170.258 9.70686 -167.721
lowerback 6.85202 6.62385 3.79014
upperback -7.73125 9.76786 -0.403329
thorax -11.4758 4.50336 -4.12096
lowerneck -14.5624 11.5872 9.4619
upperneck 6.60176 14.5239 -7.47494
head 5.55482 6.85385 -2.39227
rclavicle 1.49436e-013 7.31528e-014
rhumerus -31.4231 31.7749 -46.0992
rradius 115.767
rwrist 24.9363
rhand -54.6202 57.9015
rfingers 7.12502
rthumb -27.0168 29.8137
lclavicle 1.49436e-013 7.31528e-014
lhumerus -3.24177 17.5035 23.7407
lradius 66.4301
lwrist 60.6137
lhand -7.36726 31.2707
lfingers 7.12502
lthumb 18.5176 420.409
rfemur -22.4964 -9.0811 52.2333
rtibia 58.0706
rfoot -33.8126 -2.86705
rtoes 22.2295
lfemur -60.0707 14.2699 -44.9691
ltibia 63.7955
lfoot 3.22319 -12.3184
ltoes 3.53065
1770
root 8.29024 13.2831 5.09285 -170.065 9.9183 -168.038
lowerback 6.51215 6.89126 3.52065
upperback -7.92461 10.0752 -0.74674
thorax -11.4463 4.66725 -4.35212
lowerneck -14.6366 11.8054 9.50843
upperneck 7.0001 14.8158 -7.33714
head 5.70746 7.00344 -2.30545
rclavicle -7.30534e-014 9.54166e-015
rhumerus -29.9403 34.2767 -44.7582
rradius 115.669
rwrist 25.0515
rhand -54.7865 58.7945
rfingers 7.12502
rthumb -27.176 30.7315
lclavicle -7.30534e-014 9.54166e-015
lhumerus -0.547927 19.8406 23.9175
lradius 60.9462
lwrist 64.7307
lhand -5.83609 34.376
lfingers 7.12502
lthumb 19.9899 423.368
rfemur -22.0009 -9.87022 52.5929
rtibia 57.607
rfoot -33.5921 -1.6943
rtoes 23.5404
lfemur -59.7945 14.3969 -45.5324
ltibia 63.2363
lfoot 3.28568 -11.2788
ltoes 7.64456
1771
root 8.50187 13.2626 5.02906 -169.86 10.1858 -168.368
lowerback 6.15534 7.16619 3.22667
upperback -8.13313 10.3933 -1.12495
thorax -11.4201 4.83869 -4.60538
lowerneck -14.7585 11.9706 9.50805
upperneck 7.43658 15.0317 -7.11997
head 5.86383 7.1189 -2.19328
rclavicle 4.58199e-014 4.77083e-014
rhumerus -28.3153 36.6623 -43.3213
rradius 115.516
rwrist 24.751
rhand -54.8953 59.4345
rfingers 7.12502
rthumb -27.28 31.3878
lclavicle 4.58199e-014 4.77083e-014
lhumerus 2.34628 22.3606 24.3684
lradius 55.3897
lwrist 67.3168
lhand -5.43519 36.9153
lfingers 7.12502
lthumb 20.3752 425.866
rfemur -21.4391 -10.6456 52.908
rtibia 57.0479
rfoot -33.2739 -0.461469
rtoes 24.8406
lfemur -59.5893 14.4819 -45.8315
ltibia 62.9763
lfoot 2.90387 -10.4141
ltoes 11.9437
1772
root 8.71664 13.2456 4.9643 -169.641 10.5084 -168.706
lowerback 5.78243 7.44225 2.91809
upperback -8.351 10.7146 -1.53965
thorax -11.3894 5.0137 -4.88603
lowerneck -14.9123 12.0963 9.48355
upperneck 7.87324 15.1866 -6.8496
head 6.01438 7.20721 -2.06709
rclavicle 5.38706e-014 1.74931e-014
rhumerus -26.5211 38.8782 -41.7723
rradius 115.31
rwrist 24.2324
rhand -54.9365 59.8387
rfingers 7.12502
rthumb -27.3195 31.7982
lclavicle 5.38706e-014 1.74931e-014
lhumerus 5.41418 25.0985 25.1164
lradius 49.8404
lwrist 67.8634
lhand -5.4736 38.0222
lfingers 7.12502
lthumb 20.3383 426.977
rfemur -20.8065 -11.3895 53.189
rtibia 56.3891
rfoot -32.8505 0.75735
rtoes 25.9833
lfemur -59.4637 14.5314 -45.8849
ltibia 62.9942
lfoot 2.05745 -9.77097
ltoes 16.1851
1773
root 8.93427 13.2313 4.89891 -169.4 10.8831 -169.049
lowerback 5.3913 7.71692 2.60375
upperback -8.58042 11.0386 -1.99177
thorax -11.3535 5.19175 -5.19933
lowerneck -15.0795 12.1797 9.41715
upperneck 8.27849 15.2797 -6.52661
head 6.14481 7.2685 -1.92681
rclavicle 5.60573e-014 2.22639e-014
rhumerus -24.5741 40.8715 -40.1233
rradius 115.026
rwrist 23.7384
rhand -54.935 60.039
rfingers 7.12502
rthumb -27.318 31.9982
lclavicle 5.60573e-014 2.22639e-014
lhumerus 8.64821 28.1163 26.2252
lradius 44.3989
lwrist 66.2029
lhand -5.0719 38.4541
lfingers 7.12502
lthumb 20.7243 427.368
rfemur -20.1187 -12.072 53.44
rtibia 55.6409
rfoot -32.3168 1.94829
rtoes 26.9912
lfemur -59.4319 14.5515 -45.7292
ltibia 63.2514
lfoot 0.77849 -9.35343
ltoes 19.9897
1774
root 9.1548 13.2189 4.8331 -169.14 11.306 -169.408
lowerback 4.98782 7.98386 2.27278
upperback -8.81949 11.3564 -2.4826
thorax -11.3159 5.36957 -5.5408
lowerneck -15.2536 12.226 9.31897
upperneck 8.63447 15.3176 -6.16575
head 6.25101 7.30566 -1.77853
rclavicle -8.21975e-014 -4.77083e-015
rhumerus -22.4852 42.6356 -38.4023
rradius 114.671
rwrist 23.3552
rhand -54.8998 60.0978
rfingers 7.12502
rthumb -27.2843 32.0518
lclavicle -8.21975e-014 -4.77083e-015
lhumerus 12.0356 31.407 27.7094
lradius 39.2044
lwrist 62.6322
lhand -4.05986 38.0094
lfingers 7.12502
lthumb 21.6965 426.814
rfemur -19.379 -12.6801 53.6578
rtibia 54.8149
rfoot -31.684 3.03409
rtoes 27.7373
lfemur -59.4896 14.5529 -45.4119
ltibia 63.6977
lfoot -0.875052 -9.11961
ltoes 23.1177
1775
root 9.37799 13.208 4.76703 -168.859 11.7719 -169.79
lowerback 4.56256 8.23814 1.91789
upperback -9.06519 11.6622 -3.01068
thorax -11.2696 5.54588 -5.90254
lowerneck -15.4245 12.235 9.18546
upperneck 8.92397 15.3029 -5.77726
head 6.32679 7.31947 -1.62582
rclavicle 4.53229e-014 4.77083e-015
rhumerus -20.2782 44.1737 -36.6351
rradius 114.248
rwrist 23.0975
rhand -54.8464 60.0936
rfingers 7.12502
rthumb -27.2332 32.0396
lclavicle 4.53229e-014 4.77083e-015
lhumerus 15.6263 35.0439 29.6898
lradius 34.4119
lwrist 57.6786
lhand -2.55861 37.0002
lfingers 7.12502
lthumb 23.1375 425.631
rfemur -18.6144 -13.1796 53.8384
rtibia 53.9396
rfoot -30.9494 4.03897
rtoes 28.3143
lfemur -59.6317 14.5395 -44.9828
ltibia 64.2728
lfoot -2.80885 -8.99232
ltoes 25.3605
1776
root 9.60333 13.1987 4.70097 -168.558 12.2686 -170.222
lowerback 4.11619 8.47039 1.51856
upperback -9.31778 11.9435 -3.57814
thorax -11.2201 5.71675 -6.27568
lowerneck -15.5871 12.2112 9.02139
upperneck 9.14767 15.243 -5.37007
head 6.37349 7.31306 -1.47142
rclavicle -6.17226e-014 1.90833e-014
rhumerus -17.9799 45.5155 -34.8572
rradius 113.775
rwrist 22.9036
rhand -54.7736 60.0765
rfingers 7.12502
rthumb -27.1636 32.0116
lclavicle -6.17226e-014 1.90833e-014
lhumerus 19.469 38.9733 32.2526
lradius 30.2083
lwrist 52.0929
lhand -0.813105 35.8259
lfingers 7.12502
lthumb 24.8113 424.236
rfemur -17.8525 -13.5618 53.9635
rtibia 53.0414
rfoot -30.1133 4.94623
rtoes 28.7054
lfemur -59.8393 14.5045 -44.5014
ltibia 64.9126
lfoot -4.87138 -8.91333
ltoes 26.7927
1777
root 9.83061 13.1922 4.63477 -168.252 12.7814 -170.722
lowerback 3.65226 8.67565 1.06046
upperback -9.57366 12.1948 -4.18374
thorax -11.1699 5.88115 -6.65215
lowerneck -15.7418 12.1564 8.83122
upperneck 9.31614 15.1428 -4.95767
head 6.39671 7.28774 -1.31912
rclavicle 3.27001e-014 9.06458e-014
rhumerus -15.6442 46.6919 -33.1094
rradius 113.278
rwrist 22.6711
rhand -54.6861 60.1202
rfingers 7.12502
rthumb -27.0798 32.0422
lclavicle 3.27001e-014 9.06458e-014
lhumerus 23.571 42.9452 35.4078
lradius 26.7822
lwrist 46.7306
lhand 0.7107 34.8871
lfingers 7.12502
lthumb 26.2709 423.088
rfemur -17.1151 -13.8231 54.015
rtibia 52.1509
rfoot -29.1545 5.81885
rtoes 29.1516
lfemur -60.0732 14.4443 -44.0119
ltibia 65.5573
lfoot -6.9246 -8.80876
ltoes 27.5793
1778
root 10.0598 13.1889 4.56829 -167.955 13.2923 -171.303
lowerback 3.17737 8.84701 0.531943
upperback -9.82698 12.4085 -4.82005
thorax -11.1219 6.03676 -7.01918
lowerneck -15.8969 12.0759 8.62557
upperneck 9.45449 15.0104 -4.5539
head 6.4087 7.24608 -1.17225
rclavicle 2.52457e-014 -1.20861e-013
rhumerus -13.3171 47.7314 -31.4322
rradius 112.777
rwrist 22.319
rhand -54.5777 60.1859
rfingers 7.12502
rthumb -26.9761 32.0918
lclavicle 2.52457e-014 -1.20861e-013
lhumerus 27.7284 46.4918 38.8906
lradius 24.2813
lwrist 42.4727
lhand 1.4818 34.2517
lfingers 7.12502
lthumb 27.0089 422.341
rfemur -16.4137 -13.9825 53.9854
rtibia 51.2891
rfoot -28.0611 6.64116
rtoes 29.6285
lfemur -60.29 14.3537 -43.5485
ltibia 66.1611
lfoot -8.9178 -8.6625
ltoes 27.7342
1779
root 10.2904 13.1905 4.50137 -167.684 13.7815 -171.978
lowerback 2.70033 8.97916 -0.0714603
upperback -10.0735 12.5798 -5.48135
thorax -11.0801 6.18196 -7.37072
lowerneck -16.0467 11.9703 8.40913
upperneck 9.5775 14.8488 -4.1691
head 6.41498 7.18888 -1.03399
rclavicle 1.68967e-014 2.70347e-014
rhumerus -11.0578 48.6565 -29.8645
rradius 112.289
rwrist 21.8004
rhand -54.431 60.3054
rfingers 7.12502
rthumb -26.8358 32.1896
lclavicle 1.68967e-014 2.70347e-014
lhumerus 31.3366 49.0215 41.9724
lradius 22.7839
lwrist 40.1048
lhand 1.33444 34.2902
lfingers 7.12502
lthumb 26.8679 422.401
rfemur -15.7626 -14.0654 53.8594
rtibia 50.4732
rfoot -26.8141 7.41532
rtoes 30.1442
lfemur -60.4555 14.2203 -43.1406
ltibia 66.693
lfoot -10.776 -8.51323
ltoes 27.8777
1780
root 10.5222 13.1977 4.43389 -167.45 14.2286 -172.735
lowerback 2.23429 9.07132 -0.725738
upperback -10.3098 12.7114 -6.15909
thorax -11.0457 6.31617 -7.71368
lowerneck -16.1989 11.8412 8.17234
upperneck 9.70762 14.6621 -3.79762
head 6.42332 7.11784 -0.899551
rclavicle -2.07332e-013 -6.04305e-014
rhumerus -8.93944 49.474 -28.4537
rradius 111.762
rwrist 21.2678
rhand -54.3556 60.3572
rfingers 7.12502
rthumb -26.7637 32.2305
lclavicle -2.07332e-013 -6.04305e-014
lhumerus 33.6788 50.1924 43.8071
lradius 22.2304
lwrist 39.8744
lhand 0.433741 35.0851
lfingers 7.12502
lthumb 26.0058 423.325
rfemur -15.1693 -14.1044 53.6452
rtibia 49.7145
rfoot -25.3862 8.15844
rtoes 30.7195
lfemur -60.5435 14.0338 -42.7857
ltibia 67.1458
lfoot -12.4799 -8.30701
ltoes 27.9345
1781
root 10.7545 13.2105 4.36589 -167.258 14.6166 -173.549
lowerback 1.79847 9.12732 -1.39719
upperback -10.5358 12.8112 -6.84007
thorax -11.0251 6.43999 -8.05706
lowerneck -16.349 11.6862 7.9115
upperneck 9.85821 14.4487 -3.43792
head 6.43714 7.03229 -0.76784
rclavicle 4.09496e-014 -8.26944e-014
rhumerus -7.04563 50.1977 -27.2571
rradius 111.246
rwrist 20.6973
rhand -54.2892 60.3617
rfingers 7.12502
rthumb -26.7001 32.2252
lclavicle 4.09496e-014 -8.26944e-014
lhumerus 34.4874 50.0724 44.064
lradius 22.4305
lwrist 41.3343
lhand -1.0009 36.461
lfingers 7.12502
lthumb 24.6313 424.896
rfemur -14.6367 -14.136 53.3632
rtibia 49.0201
rfoot -23.7591 8.86658
rtoes 31.2785
lfemur -60.542 13.7932 -42.4688
ltibia 67.5272
lfoot -14.0238 -8.00269
ltoes 27.7049
